<svg width="18" height="21" viewBox="0 0 18 21" fill="none" xmlns="http://www.w3.org/2000/svg">
<g filter="url(#filter0_d_1_906)">
<path d="M9.11399 4.66625L9.43798 5.42407C9.45995 5.48997 9.52035 5.52841 9.58076 5.5339L10.4045 5.61078C10.5802 5.62725 10.6461 5.84142 10.5198 5.95674L9.89927 6.5004C9.84984 6.54433 9.82788 6.61022 9.84435 6.67063L10.0256 7.47788C10.064 7.64811 9.88279 7.77991 9.72903 7.69204L9.02063 7.2692C8.96572 7.23625 8.89433 7.23625 8.83941 7.2692L8.13101 7.69204C7.98274 7.77991 7.79603 7.64811 7.83447 7.47788L8.01569 6.67063C8.03217 6.61022 8.0102 6.54433 7.96078 6.5004L7.34024 5.95674C7.20845 5.84142 7.27984 5.62725 7.45556 5.61078L8.27928 5.5339C8.34518 5.52841 8.4001 5.48997 8.42755 5.42956L8.75155 4.67174C8.81745 4.50699 9.0426 4.50699 9.11399 4.66625Z" stroke="#F0C932" stroke-width="0.549146" stroke-miterlimit="10" stroke-linecap="round" stroke-linejoin="round"/>
<path d="M12.6655 6.2724C12.6797 4.21006 11.0193 2.5267 8.95698 2.51251C6.89464 2.49831 5.21128 4.15866 5.19709 6.221C5.18289 8.28334 6.84324 9.96671 8.90558 9.9809C10.9679 9.99509 12.6513 8.33474 12.6655 6.2724Z" stroke="#F0C932" stroke-width="0.549146" stroke-miterlimit="10" stroke-linecap="round" stroke-linejoin="round"/>
<path d="M8.42202 9.94354L7.49396 12.2774L6.31879 10.932L4.54504 11.0967L5.72022 8.15332" stroke="#F0C932" stroke-width="0.549146" stroke-miterlimit="10" stroke-linecap="round" stroke-linejoin="round"/>
<path d="M9.4325 9.94354L10.366 12.2774L11.5357 10.932L13.315 11.0967L12.1343 8.15332" stroke="#F0C932" stroke-width="0.549146" stroke-miterlimit="10" stroke-linecap="round" stroke-linejoin="round"/>
</g>
<defs>
<filter id="filter0_d_1_906" x="-1.43188" y="0.536743" width="21.1795" height="21.1796" filterUnits="userSpaceOnUse" color-interpolation-filters="sRGB">
<feFlood flood-opacity="0" result="BackgroundImageFix"/>
<feColorMatrix in="SourceAlpha" type="matrix" values="0 0 0 0 0 0 0 0 0 0 0 0 0 0 0 0 0 0 127 0" result="hardAlpha"/>
<feOffset dy="4"/>
<feGaussianBlur stdDeviation="2"/>
<feComposite in2="hardAlpha" operator="out"/>
<feColorMatrix type="matrix" values="0 0 0 0 0 0 0 0 0 0 0 0 0 0 0 0 0 0 0.25 0"/>
<feBlend mode="normal" in2="BackgroundImageFix" result="effect1_dropShadow_1_906"/>
<feBlend mode="normal" in="SourceGraphic" in2="effect1_dropShadow_1_906" result="shape"/>
</filter>
</defs>
</svg>
