<svg width="8" height="8" viewBox="0 0 8 8" fill="none" xmlns="http://www.w3.org/2000/svg">
<g clip-path="url(#clip0_1_985)">
<path d="M3.9753 2.42019C3.04963 2.42019 2.30299 3.16299 2.30299 4.08388C2.30299 5.00477 3.04963 5.74757 3.9753 5.74757C4.90096 5.74757 5.6476 5.00477 5.6476 4.08388C5.6476 3.16299 4.90096 2.42019 3.9753 2.42019ZM3.9753 5.16549C3.37711 5.16549 2.88808 4.68043 2.88808 4.08388C2.88808 3.48733 3.37565 3.00227 3.9753 3.00227C4.57494 3.00227 5.06251 3.48733 5.06251 4.08388C5.06251 4.68043 4.57348 5.16549 3.9753 5.16549ZM6.10606 2.35214C6.10606 2.56788 5.93141 2.74019 5.71601 2.74019C5.49914 2.74019 5.32595 2.56644 5.32595 2.35214C5.32595 2.13784 5.5006 1.96409 5.71601 1.96409C5.93141 1.96409 6.10606 2.13784 6.10606 2.35214ZM7.21366 2.74598C7.18891 2.22617 7.06957 1.76572 6.68679 1.38636C6.30546 1.007 5.84263 0.888269 5.32013 0.862206C4.78161 0.8318 3.16752 0.8318 2.62901 0.862206C2.10796 0.886821 1.64513 1.00555 1.26235 1.38491C0.879567 1.76428 0.761676 2.22472 0.735478 2.74453C0.704914 3.28027 0.704914 4.88604 0.735478 5.42178C0.760221 5.94159 0.879567 6.40204 1.26235 6.7814C1.64513 7.16076 2.10651 7.27949 2.62901 7.30555C3.16752 7.33596 4.78161 7.33596 5.32013 7.30555C5.84263 7.28094 6.30546 7.16221 6.68679 6.7814C7.06811 6.40204 7.18746 5.94159 7.21366 5.42178C7.24422 4.88604 7.24422 3.28172 7.21366 2.74598ZM6.51795 5.99661C6.40443 6.28041 6.18466 6.49905 5.89794 6.61344C5.46858 6.78285 4.44977 6.74375 3.9753 6.74375C3.50082 6.74375 2.48055 6.7814 2.05265 6.61344C1.76739 6.5005 1.54762 6.28186 1.43264 5.99661C1.26235 5.56947 1.30165 4.55591 1.30165 4.08388C1.30165 3.61185 1.2638 2.59684 1.43264 2.17115C1.54616 1.88735 1.76593 1.66871 2.05265 1.55432C2.48201 1.38491 3.50082 1.42401 3.9753 1.42401C4.44977 1.42401 5.47004 1.38636 5.89794 1.55432C6.1832 1.66726 6.40297 1.8859 6.51795 2.17115C6.68824 2.59829 6.64894 3.61185 6.64894 4.08388C6.64894 4.55591 6.68824 5.57092 6.51795 5.99661Z" fill="white"/>
</g>
<defs>
<clipPath id="clip0_1_985">
<rect width="6.58976" height="7.41348" fill="white" transform="translate(0.731049 0.378387)"/>
</clipPath>
</defs>
</svg>
