<svg width="16" height="15" viewBox="0 0 16 15" fill="none" xmlns="http://www.w3.org/2000/svg">
<g clip-path="url(#clip0_1_980)" filter="url(#filter0_d_1_980)">
<path d="M6.42487 6.96803V2.79981H5.02694V6.96803H6.42487ZM5.72608 2.23037C6.21357 2.23037 6.517 1.9103 6.517 1.51032C6.50792 1.10132 6.21358 0.790131 5.73533 0.790131C5.25716 0.790131 4.94446 1.10132 4.94446 1.51032C4.94446 1.91032 5.24782 2.23037 5.71696 2.23037H5.72604H5.72608ZM7.19862 6.96803H8.59655V4.64029C8.59655 4.51572 8.60563 4.39127 8.64255 4.30222C8.74361 4.05331 8.97362 3.79552 9.35979 3.79552C9.86564 3.79552 10.068 4.17776 10.068 4.7381V6.968H11.4659V4.57798C11.4659 3.29767 10.7762 2.70195 9.85644 2.70195C9.10231 2.70195 8.7712 3.11972 8.58725 3.40425H8.59658V2.79973H7.19865C7.21699 3.19085 7.19865 6.96795 7.19865 6.96795L7.19862 6.96803Z" fill="white"/>
</g>
<defs>
<filter id="filter0_d_1_980" x="0.961731" y="0.79039" width="14.5898" height="14.1779" filterUnits="userSpaceOnUse" color-interpolation-filters="sRGB">
<feFlood flood-opacity="0" result="BackgroundImageFix"/>
<feColorMatrix in="SourceAlpha" type="matrix" values="0 0 0 0 0 0 0 0 0 0 0 0 0 0 0 0 0 0 127 0" result="hardAlpha"/>
<feOffset dy="4"/>
<feGaussianBlur stdDeviation="2"/>
<feComposite in2="hardAlpha" operator="out"/>
<feColorMatrix type="matrix" values="0 0 0 0 0 0 0 0 0 0 0 0 0 0 0 0 0 0 0.25 0"/>
<feBlend mode="normal" in2="BackgroundImageFix" result="effect1_dropShadow_1_980"/>
<feBlend mode="normal" in="SourceGraphic" in2="effect1_dropShadow_1_980" result="shape"/>
</filter>
<clipPath id="clip0_1_980">
<rect width="6.58976" height="6.1779" fill="white" transform="translate(4.96173 0.79039)"/>
</clipPath>
</defs>
</svg>
