<svg width="10" height="9" viewBox="0 0 10 9" fill="none" xmlns="http://www.w3.org/2000/svg">
<path d="M4.64411 0.422591C4.70575 0.232866 4.97417 0.232866 5.03581 0.422591L5.90335 3.09259C5.93091 3.17743 6.00998 3.23488 6.0992 3.23488H8.9066C9.10608 3.23488 9.18903 3.49015 9.02764 3.60741L6.7564 5.25756C6.68423 5.31 6.65403 5.40295 6.6816 5.4878L7.54913 8.15779C7.61078 8.34752 7.39363 8.50528 7.23224 8.38803L4.961 6.73788C4.88883 6.68544 4.79109 6.68544 4.71892 6.73788L2.44768 8.38803C2.28629 8.50528 2.06915 8.34752 2.13079 8.15779L2.99832 5.4878C3.02589 5.40295 2.99569 5.31 2.92352 5.25756L0.652282 3.60741C0.490892 3.49015 0.573836 3.23488 0.773325 3.23488H3.58072C3.66994 3.23488 3.74901 3.17743 3.77658 3.09259L4.64411 0.422591Z" fill="#F1CC4A"/>
</svg>
